<svg width="28" height="28" viewBox="0 0 28 28" fill="none" xmlns="http://www.w3.org/2000/svg">
<g clip-path="url(#clip0_2201_1373)">
<path d="M19.1493 24.2051V21.8999C19.1493 20.6771 18.6746 19.5044 17.8296 18.6398C16.9847 17.7751 15.8386 17.2894 14.6436 17.2894H5.63218C4.43719 17.2894 3.29115 17.7751 2.44616 18.6398C1.60117 19.5044 1.12646 20.6771 1.12646 21.8999V24.2051M25.9079 24.2051V21.8999C25.9072 20.8784 25.5749 19.886 24.9633 19.0786C24.3516 18.2713 23.4953 17.6946 22.5286 17.4392M18.0229 3.60773C18.9921 3.86165 19.8511 4.43843 20.4646 5.24712C21.0781 6.05581 21.411 7.05042 21.411 8.07415C21.411 9.09788 21.0781 10.0925 20.4646 10.9012C19.8511 11.7099 18.9921 12.2867 18.0229 12.5406M14.6436 8.06839C14.6436 10.6147 12.6263 12.6789 10.1379 12.6789C7.64946 12.6789 5.63218 10.6147 5.63218 8.06839C5.63218 5.52208 7.64946 3.45789 10.1379 3.45789C12.6263 3.45789 14.6436 5.52208 14.6436 8.06839Z" stroke="#ECE2CF" stroke-width="2.20047" stroke-linecap="round" stroke-linejoin="round"/>
</g>
<defs>
<clipPath id="clip0_2201_1373">
<rect width="27.0343" height="27.663" fill="white"/>
</clipPath>
</defs>
</svg>
